<?xml version="1.0" encoding="UTF-8" standalone="no"?>
<!DOCTYPE svg PUBLIC "-//W3C//DTD SVG 1.1//EN" "http://www.w3.org/Graphics/SVG/1.1/DTD/svg11.dtd">
<svg width="100%" height="100%" viewBox="0 0 2312 482" version="1.1" xmlns="http://www.w3.org/2000/svg" xmlns:xlink="http://www.w3.org/1999/xlink" xml:space="preserve" xmlns:serif="http://www.serif.com/" style="fill-rule:evenodd;clip-rule:evenodd;stroke-linejoin:round;stroke-miterlimit:2;">
    <g transform="matrix(-1,-1.66533e-16,1.66533e-16,-1,2355.61,893.642)">
        <g transform="matrix(1.03204,0,0,1.15579,-594.969,61.4735)">
            <path d="M2425.34,303.435L2425.34,720L618.758,720L618.758,303.435L2425.34,303.435ZM2261.96,466.847C2234.22,466.847 2211.71,486.953 2211.71,511.717C2211.71,536.482 2234.22,556.588 2261.96,556.588C2289.69,556.588 2312.21,536.482 2312.21,511.717C2312.21,486.953 2289.69,466.847 2261.96,466.847Z" style="fill:url(#_Linear1);"/>
        </g>
        <g transform="matrix(0.922862,-0.372861,0.338491,0.837796,-151.356,770.629)">
            <rect x="1840.65" y="635.564" width="157.334" height="43.105" style="fill:rgb(126,120,123);"/>
        </g>
        <g transform="matrix(0.922862,0.372861,-0.338491,0.837796,293.501,-583.828)">
            <rect x="1840.65" y="635.564" width="157.334" height="43.105" style="fill:rgb(126,120,123);"/>
        </g>
        <g transform="matrix(2.67091,0.567719,-0.187867,0.883846,-2861.89,-962.78)">
            <rect x="1840.65" y="635.564" width="157.334" height="43.105" style="fill:rgb(126,120,123);"/>
        </g>
        <g transform="matrix(2.61662,-0.55618,0.187867,0.883846,-3000.33,1067.82)">
            <rect x="1840.65" y="635.564" width="157.334" height="43.105" style="fill:rgb(126,120,123);"/>
        </g>
        <g transform="matrix(5.50598e-17,0.899194,-0.556267,3.40615e-17,2154.64,-531.26)">
            <path d="M1402.35,443.257L1211.52,443.257L1259.23,375.905L1354.64,375.905L1402.35,443.257Z" style="fill:rgb(174,168,171);"/>
        </g>
    </g>
    <defs>
        <linearGradient id="_Linear1" x1="0" y1="0" x2="1" y2="0" gradientUnits="userSpaceOnUse" gradientTransform="matrix(1591.12,0,0,1591.12,618.758,511.717)"><stop offset="0" style="stop-color:rgb(13,6,15);stop-opacity:1"/><stop offset="1" style="stop-color:rgb(63,72,73);stop-opacity:1"/></linearGradient>
    </defs>
</svg>
